<svg xmlns="http://www.w3.org/2000/svg" xmlns:xlink="http://www.w3.org/1999/xlink" width="500" zoomAndPan="magnify" viewBox="0 0 375 374.999991" height="500" preserveAspectRatio="xMidYMid meet" version="1.0"><defs><clipPath id="3682f42330"><path d="M 69 83 L 349 83 L 349 337.859375 L 69 337.859375 Z M 69 83 " clip-rule="nonzero"/></clipPath><clipPath id="1b18c4249c"><path d="M 26.03125 47 L 124 47 L 124 151 L 26.03125 151 Z M 26.03125 47 " clip-rule="nonzero"/></clipPath></defs><g clip-path="url(#3682f42330)"><path fill="#ffffff" d="M 236.5 279.324219 L 182.019531 279.324219 C 179.113281 279.324219 176.753906 276.957031 176.753906 274.042969 C 176.753906 271.136719 179.113281 268.769531 182.019531 268.769531 L 236.5 268.769531 C 239.414062 268.769531 241.777344 271.136719 241.777344 274.042969 C 241.777344 276.957031 239.414062 279.324219 236.5 279.324219 Z M 339.914062 83.378906 L 95.378906 83.378906 L 110.902344 99.191406 L 333.152344 99.191406 L 333.152344 253.84375 L 85.378906 253.84375 L 85.378906 151.265625 L 69.554688 132.695312 L 69.554688 285.210938 C 69.554688 290.191406 73.621094 294.257812 78.601562 294.257812 L 200.472656 294.257812 L 200.472656 318.527344 L 185.757812 318.527344 C 185.347656 318.527344 184.941406 318.664062 184.605469 318.890625 L 163.484375 333.679688 C 161.890625 334.796875 162.6875 337.308594 164.636719 337.308594 L 253.886719 337.308594 C 255.84375 337.308594 256.632812 334.796875 255.035156 333.679688 L 233.914062 318.890625 C 233.578125 318.664062 233.183594 318.527344 232.773438 318.527344 L 218.050781 318.527344 L 218.050781 294.257812 L 339.914062 294.257812 C 344.910156 294.257812 348.964844 290.191406 348.964844 285.210938 L 348.964844 92.433594 C 348.964844 87.433594 344.910156 83.378906 339.914062 83.378906 " fill-opacity="1" fill-rule="nonzero"/></g><path fill="#ffffff" d="M 315.3125 124.085938 C 315.3125 119.015625 311.199219 114.890625 306.125 114.890625 C 301.050781 114.890625 296.9375 119.015625 296.9375 124.085938 C 296.9375 129.167969 301.050781 133.28125 306.125 133.28125 C 311.199219 133.28125 315.3125 129.167969 315.3125 124.085938 " fill-opacity="1" fill-rule="nonzero"/><path fill="#ffffff" d="M 288.09375 124.085938 C 288.09375 119.015625 283.976562 114.890625 278.90625 114.890625 C 273.832031 114.890625 269.71875 119.015625 269.71875 124.085938 C 269.71875 129.167969 273.832031 133.28125 278.90625 133.28125 C 283.976562 133.28125 288.09375 129.167969 288.09375 124.085938 " fill-opacity="1" fill-rule="nonzero"/><path fill="#ffffff" d="M 251.6875 114.890625 C 246.605469 114.890625 242.488281 119.015625 242.488281 124.085938 C 242.488281 129.167969 246.605469 133.28125 251.6875 133.28125 C 256.757812 133.28125 260.875 129.167969 260.875 124.085938 C 260.875 119.015625 256.757812 114.890625 251.6875 114.890625 " fill-opacity="1" fill-rule="nonzero"/><path fill="#ffffff" d="M 250.980469 150.953125 L 250.980469 182.0625 C 250.980469 184.019531 252.558594 185.597656 254.507812 185.597656 L 311.777344 185.597656 C 313.734375 185.597656 315.3125 184.019531 315.3125 182.0625 L 315.3125 150.953125 C 315.3125 149.003906 313.734375 147.417969 311.777344 147.417969 L 254.507812 147.417969 C 252.558594 147.417969 250.980469 149.003906 250.980469 150.953125 " fill-opacity="1" fill-rule="nonzero"/><path fill="#ffffff" d="M 229.414062 147.417969 L 189.109375 147.417969 C 187.160156 147.417969 185.574219 149.003906 185.574219 150.953125 L 185.574219 182.0625 C 185.574219 184.019531 187.160156 185.597656 189.109375 185.597656 L 229.414062 185.597656 C 231.363281 185.597656 232.949219 184.019531 232.949219 182.0625 L 232.949219 150.953125 C 232.949219 149.003906 231.363281 147.417969 229.414062 147.417969 " fill-opacity="1" fill-rule="nonzero"/><path fill="#ffffff" d="M 188.855469 203.328125 C 189.585938 205.621094 189.746094 208.019531 189.378906 210.339844 L 313.449219 210.339844 C 314.480469 210.339844 315.320312 209.507812 315.320312 208.476562 L 315.320312 200.195312 C 315.320312 199.160156 314.480469 198.320312 313.449219 198.320312 L 187.277344 198.320312 C 187.78125 199.925781 188.300781 201.589844 188.855469 203.328125 " fill-opacity="1" fill-rule="nonzero"/><path fill="#ffffff" d="M 105.082031 210.339844 L 140.941406 210.339844 C 135.484375 207.683594 134.566406 206.609375 133.324219 205.140625 C 131.652344 203.160156 130.234375 200.875 129.085938 198.320312 L 105.082031 198.320312 C 104.039062 198.320312 103.207031 199.160156 103.207031 200.195312 L 103.207031 208.476562 C 103.207031 209.507812 104.039062 210.339844 105.082031 210.339844 " fill-opacity="1" fill-rule="nonzero"/><path fill="#ffffff" d="M 103.207031 224.945312 L 103.207031 233.226562 C 103.207031 234.257812 104.039062 235.089844 105.082031 235.089844 L 313.449219 235.089844 C 314.480469 235.089844 315.320312 234.257812 315.320312 233.226562 L 315.320312 224.945312 C 315.320312 223.910156 314.480469 223.070312 313.449219 223.070312 L 105.082031 223.070312 C 104.039062 223.070312 103.207031 223.910156 103.207031 224.945312 " fill-opacity="1" fill-rule="nonzero"/><g clip-path="url(#1b18c4249c)"><path fill="#ffffff" d="M 123.878906 130.585938 C 102.613281 108.917969 81.566406 87.46875 60.550781 66.0625 C 55.964844 61.289062 44.511719 49.710938 44.433594 49.632812 C 42.226562 47.382812 39.464844 47.15625 36.640625 47.777344 C 34.1875 48.316406 32.164062 49.40625 30.609375 50.84375 C 29.039062 52.261719 27.773438 54.175781 27.015625 56.570312 C 26.152344 59.332031 26.136719 62.105469 28.175781 64.507812 C 28.242188 64.582031 38.765625 77.019531 43.101562 82.019531 C 62.558594 104.855469 82.050781 127.730469 101.738281 150.835938 C 105.527344 147.359375 120.074219 134.054688 123.878906 130.585938 " fill-opacity="1" fill-rule="nonzero"/></g><path fill="#ffffff" d="M 116.160156 144.378906 C 112.589844 147.644531 108.996094 150.929688 105.28125 154.328125 C 114.578125 162.507812 133.222656 178.921875 133.222656 178.921875 L 149.046875 164.449219 C 149.046875 164.449219 134.359375 144.417969 127.035156 134.425781 C 123.324219 137.828125 119.738281 141.109375 116.160156 144.378906 " fill-opacity="1" fill-rule="nonzero"/><path fill="#ffffff" d="M 167.996094 178.988281 C 167.582031 177.507812 165.9375 175.484375 164.289062 174.234375 C 163.082031 173.308594 161.738281 172.65625 160.328125 172.101562 C 157.679688 171.078125 154.800781 170.453125 151.960938 170.882812 C 148.929688 171.335938 146.160156 172.972656 143.914062 175.066406 C 142.226562 176.636719 140.785156 178.515625 139.925781 180.660156 C 138.960938 183.085938 138.792969 185.789062 139.230469 188.367188 C 139.480469 189.863281 139.925781 191.324219 140.523438 192.71875 C 141.152344 194.207031 141.992188 195.683594 143.035156 196.910156 C 144.371094 198.488281 163.746094 206.460938 173.292969 210.347656 C 175.316406 211.171875 177.390625 209.265625 176.730469 207.171875 C 174.109375 198.902344 169.195312 183.339844 167.996094 178.988281 " fill-opacity="1" fill-rule="nonzero"/></svg>