<svg xmlns="http://www.w3.org/2000/svg" xmlns:xlink="http://www.w3.org/1999/xlink" width="500" zoomAndPan="magnify" viewBox="0 0 375 374.999991" height="500" preserveAspectRatio="xMidYMid meet" version="1.0"><path fill="#ffffff" d="M 179.671875 242.601562 C 188.808594 247.179688 197.695312 247.179688 206.832031 242.601562 C 212.382812 239.949219 216.484375 248.132812 211.019531 250.980469 C 199.226562 256.878906 187.269531 256.878906 175.480469 250.980469 C 170.011719 248.128906 174.121094 239.953125 179.671875 242.601562 Z M 185.417969 235.800781 L 201.089844 235.800781 C 207.246094 235.699219 207.25 226.539062 201.089844 226.4375 L 185.417969 226.4375 C 179.265625 226.539062 179.257812 235.699219 185.417969 235.800781 Z M 296.285156 330.523438 C 296.210938 336.6875 286.976562 336.652344 286.917969 330.523438 C 287.03125 318.519531 287.035156 307.703125 258.820312 307.105469 L 127.683594 307.105469 C 102.496094 307.105469 99.585938 317.796875 99.585938 325.839844 L 99.585938 330.523438 C 99.585938 333.113281 97.488281 335.207031 94.902344 335.207031 C 92.316406 335.207031 90.21875 333.113281 90.21875 330.523438 L 90.21875 325.839844 C 90.738281 291.984375 128.734375 298.222656 159.15625 297.738281 L 159.15625 271.378906 C 140.410156 257.722656 128.707031 236.253906 127.515625 213.054688 C 119.550781 208.53125 114.113281 199.605469 114.113281 189.351562 L 114.113281 166.9375 C 114.113281 160.839844 119.441406 155.957031 127.960938 152.171875 C 145.558594 84.398438 241.003906 84.445312 258.570312 152.1875 C 267.070312 155.96875 272.386719 160.851562 272.386719 166.9375 L 272.386719 189.351562 C 272.386719 199.609375 266.949219 208.535156 258.984375 213.054688 C 257.773438 236.316406 246.039062 257.796875 227.34375 271.382812 L 227.34375 297.738281 C 260.988281 298.132812 298.75 292 296.28125 330.523438 Z M 173.175781 206.84375 C 176.058594 206.84375 178.683594 205.050781 180.019531 202.164062 C 184.910156 190.757812 201.589844 190.757812 206.476562 202.164062 C 207.816406 205.050781 210.441406 206.84375 213.324219 206.84375 C 213.324219 206.761719 251.523438 207.097656 249.855469 206.542969 C 249.832031 199.6875 252.246094 165.214844 250.445312 159.105469 C 239.015625 155.167969 219.894531 151.554688 193.246094 151.554688 C 166.597656 151.554688 147.476562 155.167969 136.050781 159.105469 C 134.238281 165.476562 136.660156 199.414062 136.640625 206.542969 C 135.902344 207.097656 172.515625 206.765625 173.164062 206.84375 Z M 260.398438 163.726562 C 261.046875 166.269531 259.484375 196.855469 259.464844 200.25 C 261.65625 197.253906 263.023438 193.492188 263.023438 189.351562 L 263.023438 166.9375 C 263.023438 166.058594 262.132812 164.945312 260.398438 163.726562 Z M 138.898438 148.335938 C 169.417969 140.113281 217.089844 140.113281 247.613281 148.335938 C 228.949219 98.066406 157.542969 98.09375 138.898438 148.335938 Z M 123.480469 189.351562 C 123.480469 193.492188 124.847656 197.253906 127.039062 200.25 C 127.023438 197 125.449219 166.148438 126.117188 163.714844 C 124.375 164.933594 123.480469 166.050781 123.480469 166.933594 Z M 218.753906 265.933594 C 236.019531 254.761719 247.125 236.335938 249.242188 216.105469 C 248.542969 216.164062 247.84375 216.21875 247.132812 216.21875 L 213.328125 216.21875 C 206.851562 216.21875 200.828125 212.246094 197.980469 206.109375 C 196.136719 201.804688 190.367188 201.8125 188.515625 206.109375 C 185.667969 212.25 179.648438 216.21875 173.167969 216.21875 L 139.367188 216.21875 C 138.652344 216.21875 137.949219 216.164062 137.253906 216.105469 C 140.382812 254.480469 182.246094 289.472656 218.746094 265.941406 Z M 168.523438 297.746094 L 217.980469 297.746094 L 217.980469 277.066406 C 202.378906 284.707031 184.109375 284.726562 168.523438 277.078125 Z M 284.839844 296.953125 C 281.898438 299.085938 277.417969 296.667969 277.546875 293.0625 L 277.546875 224.402344 C 277.546875 222.402344 278.816406 220.625 280.707031 219.976562 C 314.386719 202.140625 316.578125 152.96875 302.066406 117.871094 C 277.808594 83.363281 238.175781 63.578125 193.246094 63.578125 C 148.320312 63.578125 108.6875 83.355469 84.433594 117.863281 C 79.042969 130.15625 76.074219 145.082031 76.074219 159.953125 C 75.140625 183.980469 87.042969 212.0625 105.789062 219.964844 C 107.683594 220.613281 108.953125 222.394531 108.953125 224.390625 L 108.953125 293.046875 C 109.054688 296.691406 104.628906 299.03125 101.660156 296.9375 C 33.492188 249.347656 44.664062 156.839844 76.550781 112.792969 C 148.484375 10.96875 319.503906 48.011719 333.71875 175.425781 C 336.59375 200.195312 337.582031 261.601562 284.839844 296.945312 Z M 66.867188 153.726562 C 57.789062 187.511719 53 243.777344 99.585938 283.800781 L 99.585938 227.503906 C 76.535156 215.433594 64.496094 182.367188 66.867188 153.726562 Z M 319.574219 153.539062 C 321.214844 183.589844 311.90625 212.9375 286.914062 227.507812 L 286.914062 283.808594 C 333.550781 243.726562 328.714844 187.363281 319.574219 153.542969 Z M 123.867188 137.542969 C 130.894531 134.253906 127.09375 125 120.304688 128.566406 C 113.082031 131.953125 117.097656 141.273438 123.867188 137.542969 Z M 98.34375 163.988281 C 100.578125 160.9375 104.160156 156.855469 100.046875 153.675781 C 97.972656 152.140625 95.042969 152.574219 93.496094 154.640625 C 91.109375 157.625 87.519531 162.21875 91.839844 165.234375 C 93.949219 166.675781 96.882812 166.148438 98.34375 163.988281 Z M 113.414062 139.816406 C 109.742188 136.066406 105.78125 140.34375 103.234375 143.179688 C 101.433594 145.039062 101.488281 148.003906 103.34375 149.800781 C 105.199219 151.601562 108.167969 151.550781 109.96875 149.695312 C 112.6875 147.066406 116.921875 143.65625 113.410156 139.820312 Z M 89.253906 169.675781 C 83.460938 166.691406 78.230469 177.515625 84.164062 180.203125 C 89.859375 183.015625 95.027344 172.425781 89.253906 169.675781 Z M 295.125 175.953125 C 297.226562 183.503906 306.925781 181.191406 304.570312 173.972656 C 303.558594 170.824219 300.683594 167.917969 297.230469 169.675781 C 294.914062 170.820312 293.972656 173.636719 295.121094 175.953125 Z M 276.539062 149.707031 C 280.820312 154.085938 287.507812 147.621094 283.273438 143.195312 C 280.722656 140.355469 276.765625 136.066406 273.089844 139.835938 C 269.585938 143.675781 273.816406 147.078125 276.535156 149.703125 Z M 293.007812 154.664062 C 291.460938 152.589844 288.523438 152.164062 286.457031 153.707031 C 282.351562 156.894531 285.929688 160.957031 288.160156 164.011719 C 289.613281 166.171875 292.542969 166.703125 294.660156 165.277344 C 298.988281 162.265625 295.40625 157.652344 293.007812 154.664062 Z M 265.390625 138.449219 C 276.195312 136.894531 265.609375 122.507812 259.660156 129.707031 C 256.828125 133.625 261.507812 138.140625 265.390625 138.449219 Z M 265.390625 138.449219 " fill-opacity="1" fill-rule="nonzero"/></svg>