<svg xmlns="http://www.w3.org/2000/svg" xmlns:xlink="http://www.w3.org/1999/xlink" width="500" zoomAndPan="magnify" viewBox="0 0 375 374.999991" height="500" preserveAspectRatio="xMidYMid meet" version="1.0"><defs><clipPath id="ca95a0632a"><path d="M 224 204 L 347 204 L 347 326.859375 L 224 326.859375 Z M 224 204 " clip-rule="nonzero"/></clipPath><clipPath id="9c2d42cd26"><path d="M 32 42.609375 L 330 42.609375 L 330 287 L 32 287 Z M 32 42.609375 " clip-rule="nonzero"/></clipPath></defs><g clip-path="url(#ca95a0632a)"><path fill="#ffffff" d="M 331.757812 326.742188 L 239.011719 326.742188 C 230.914062 326.742188 224.289062 320.300781 224.289062 312.203125 L 224.289062 218.90625 C 224.289062 210.808594 230.914062 204.367188 239.011719 204.367188 L 331.757812 204.367188 C 339.855469 204.367188 346.296875 210.808594 346.296875 218.90625 L 346.296875 312.203125 C 346.296875 320.300781 339.855469 326.742188 331.757812 326.742188 Z M 239.011719 211.726562 C 234.960938 211.726562 231.648438 214.855469 231.648438 218.90625 L 231.648438 312.203125 C 231.648438 316.253906 234.960938 319.382812 239.011719 319.382812 L 331.757812 319.382812 C 335.804688 319.382812 338.933594 316.070312 338.933594 312.203125 L 338.933594 218.90625 C 338.933594 214.855469 335.621094 211.726562 331.757812 211.726562 Z M 239.011719 211.726562 " fill-opacity="1" fill-rule="evenodd"/></g><path fill="#ffffff" d="M 342.617188 303.925781 C 340.039062 303.925781 317.21875 286.625 313.539062 284.050781 L 295.6875 301.347656 C 294.03125 303.003906 291.089844 302.636719 289.984375 300.613281 L 266.980469 261.046875 L 230.730469 301.53125 C 227.601562 305.027344 222.078125 300.242188 225.390625 296.5625 L 264.957031 252.398438 C 266.613281 250.558594 269.742188 250.925781 270.847656 252.949219 L 293.847656 292.699219 L 310.59375 276.503906 C 311.882812 275.398438 313.90625 275.214844 315.378906 276.320312 L 344.824219 297.300781 C 347.769531 299.324219 346.296875 303.925781 342.617188 303.925781 Z M 342.617188 303.925781 " fill-opacity="1" fill-rule="evenodd"/><path fill="#ffffff" d="M 298.265625 266.015625 C 276.367188 266.015625 276.367188 232.890625 298.265625 232.890625 C 319.980469 232.890625 319.980469 266.015625 298.265625 266.015625 Z M 298.265625 240.25 C 286.121094 240.25 286.121094 258.652344 298.265625 258.652344 C 310.226562 258.652344 310.226562 240.25 298.265625 240.25 Z M 298.265625 240.25 " fill-opacity="1" fill-rule="evenodd"/><path fill="#ffffff" d="M 130.804688 222.035156 L 36.03125 222.035156 C 31.246094 222.035156 31.246094 214.671875 36.03125 214.671875 L 130.804688 214.671875 C 135.773438 214.671875 135.773438 222.035156 130.804688 222.035156 Z M 325.871094 158.914062 L 231.097656 158.914062 C 226.128906 158.914062 226.128906 151.550781 231.097656 151.550781 L 325.871094 151.550781 C 330.652344 151.550781 330.652344 158.914062 325.871094 158.914062 Z M 130.804688 158.914062 L 36.03125 158.914062 C 31.246094 158.914062 31.246094 151.550781 36.03125 151.550781 L 130.804688 151.550781 C 135.773438 151.550781 135.773438 158.914062 130.804688 158.914062 Z M 130.804688 158.914062 " fill-opacity="1" fill-rule="evenodd"/><g clip-path="url(#9c2d42cd26)"><path fill="#ffffff" d="M 227.96875 286.257812 L 58.484375 286.257812 C 44.128906 286.257812 32.351562 274.480469 32.351562 260.125 L 32.351562 113.460938 C 32.351562 99.105469 44.128906 87.328125 58.484375 87.328125 L 119.394531 87.328125 L 140.1875 44.820312 C 140.742188 43.53125 142.03125 42.609375 143.316406 42.609375 L 218.398438 42.609375 C 219.871094 42.609375 221.160156 43.53125 221.710938 44.820312 L 242.507812 87.328125 L 303.417969 87.328125 C 317.773438 87.328125 329.550781 99.105469 329.550781 113.460938 L 329.550781 208.046875 C 329.550781 212.832031 322.1875 212.832031 322.1875 208.046875 L 322.1875 113.460938 C 322.1875 103.152344 313.722656 94.6875 303.417969 94.6875 L 240.296875 94.6875 C 238.824219 94.6875 237.539062 93.953125 236.984375 92.664062 L 216.191406 49.972656 L 145.710938 49.972656 L 124.914062 92.664062 C 124.363281 93.769531 123.074219 94.6875 121.601562 94.6875 L 58.484375 94.6875 C 48.175781 94.6875 39.710938 103.152344 39.710938 113.460938 L 39.710938 260.125 C 39.710938 270.617188 48.175781 278.898438 58.484375 278.898438 L 227.96875 278.898438 C 232.9375 278.898438 232.9375 286.257812 227.96875 286.257812 Z M 227.96875 286.257812 " fill-opacity="1" fill-rule="evenodd"/></g><path fill="#ffffff" d="M 180.859375 249.636719 C 146.261719 249.636719 118.105469 221.480469 118.105469 186.882812 C 118.105469 152.105469 146.261719 123.949219 180.859375 123.949219 C 225.761719 123.949219 255.386719 169.585938 239.5625 209.703125 C 238.089844 213.015625 231.648438 211.910156 231.648438 218.90625 C 231.648438 221.113281 232.015625 223.503906 230.914062 224.792969 C 218.953125 240.621094 200.734375 249.636719 180.859375 249.636719 Z M 180.859375 131.308594 C 150.3125 131.308594 125.46875 156.152344 125.46875 186.882812 C 125.46875 217.433594 150.3125 242.277344 180.859375 242.277344 C 197.972656 242.277344 213.796875 234.730469 224.289062 221.296875 C 224.472656 220.929688 222.816406 209.886719 233.304688 205.472656 C 246.003906 169.402344 219.320312 131.308594 180.859375 131.308594 Z M 236.066406 208.414062 Z M 236.066406 208.414062 " fill-opacity="1" fill-rule="evenodd"/><path fill="#ffffff" d="M 158.589844 190.566406 C 149.023438 190.566406 157.671875 160.753906 180.859375 160.753906 C 185.828125 160.753906 185.828125 168.113281 180.859375 168.113281 C 170.554688 168.113281 162.273438 176.578125 162.273438 186.882812 C 162.273438 188.910156 160.617188 190.566406 158.589844 190.566406 Z M 158.589844 190.566406 " fill-opacity="1" fill-rule="evenodd"/><path fill="#ffffff" d="M 289.617188 94.6875 L 254.835938 94.6875 C 252.8125 94.6875 251.15625 93.03125 251.15625 91.007812 C 251.15625 57.332031 246.921875 61.566406 285.015625 61.566406 C 289.617188 61.566406 293.296875 65.429688 293.296875 69.84375 L 293.296875 91.007812 C 293.296875 93.03125 291.640625 94.6875 289.617188 94.6875 Z M 258.515625 87.328125 L 285.9375 87.328125 L 285.9375 69.84375 C 285.9375 69.476562 285.566406 68.925781 285.015625 68.925781 L 259.4375 68.925781 C 258.882812 68.925781 258.515625 69.476562 258.515625 69.84375 Z M 258.515625 87.328125 " fill-opacity="1" fill-rule="evenodd"/><path fill="#ffffff" d="M 100.992188 126.894531 L 60.875 126.894531 C 55.90625 126.894531 55.90625 119.53125 60.875 119.53125 L 100.992188 119.53125 C 105.960938 119.53125 105.960938 126.894531 100.992188 126.894531 Z M 100.992188 126.894531 " fill-opacity="1" fill-rule="evenodd"/><path fill="#ffffff" d="M 301.027344 140.695312 L 252.8125 140.695312 C 250.789062 140.695312 249.132812 139.039062 249.132812 137.015625 L 249.132812 109.410156 C 249.132812 107.386719 250.789062 105.730469 252.8125 105.730469 L 301.027344 105.730469 C 303.050781 105.730469 304.707031 107.386719 304.707031 109.410156 L 304.707031 137.015625 C 304.707031 139.039062 303.050781 140.695312 301.027344 140.695312 Z M 256.492188 133.332031 L 297.34375 133.332031 L 297.34375 113.089844 L 256.492188 113.089844 Z M 256.492188 133.332031 " fill-opacity="1" fill-rule="evenodd"/><path fill="#ffffff" d="M 180.859375 231.785156 C 156.199219 231.785156 135.957031 211.542969 135.957031 186.882812 C 135.957031 162.042969 156.199219 141.800781 180.859375 141.800781 C 205.703125 141.800781 225.945312 162.042969 225.945312 186.882812 C 225.945312 211.726562 205.703125 231.785156 180.859375 231.785156 Z M 180.859375 149.160156 C 160.246094 149.160156 143.316406 166.089844 143.316406 186.882812 C 143.316406 207.679688 160.246094 224.425781 180.859375 224.425781 C 201.652344 224.425781 218.582031 207.679688 218.582031 186.882812 C 218.582031 166.089844 201.652344 149.160156 180.859375 149.160156 Z M 180.859375 149.160156 " fill-opacity="1" fill-rule="evenodd"/></svg>