<svg xmlns="http://www.w3.org/2000/svg" xmlns:xlink="http://www.w3.org/1999/xlink" width="500" zoomAndPan="magnify" viewBox="0 0 375 374.999991" height="500" preserveAspectRatio="xMidYMid meet" version="1.0"><defs><clipPath id="cc8e9e9c46"><path d="M 37.5 38 L 330 38 L 330 337 L 37.5 337 Z M 37.5 38 " clip-rule="nonzero"/></clipPath></defs><g clip-path="url(#cc8e9e9c46)"><path fill="#ffffff" d="M 267.878906 38.738281 C 261.304688 38.738281 254.742188 41.257812 249.734375 46.289062 L 231.402344 64.460938 C 227.394531 60.40625 220.875 60.40625 216.867188 64.410156 L 216.867188 64.460938 L 187.804688 93.527344 C 183.796875 97.53125 183.796875 104.003906 187.804688 108.007812 L 187.804688 108.058594 L 164.746094 131.167969 L 75.757812 56.199219 C 67.078125 48.90625 54.242188 49.421875 46.179688 57.382812 C 38.21875 65.496094 37.703125 78.28125 44.996094 86.957031 L 120.015625 176.097656 L 49.207031 247.117188 C 46.640625 249.683594 45.054688 253.078125 44.746094 256.773438 L 41.40625 299.902344 L 37.804688 325.175781 C 37.394531 327.949219 39.351562 330.5625 42.175781 330.972656 C 42.433594 330.972656 42.683594 331.023438 42.941406 331.023438 L 43.460938 331.023438 L 68.726562 327.21875 L 112.0625 324.042969 C 115.757812 323.734375 119.203125 322.136719 121.820312 319.566406 L 177.070312 264.316406 C 178.40625 271.042969 184.15625 276.28125 191.292969 276.691406 C 194.117188 276.847656 196.890625 276.234375 199.355469 274.898438 C 200.847656 286.863281 206.289062 297.957031 214.761719 306.429688 C 231.605469 323.324219 247.472656 321.828125 261.4375 320.75 C 275.40625 319.671875 289.113281 318.390625 305.597656 334.824219 C 306.984375 336.210938 308.9375 336.671875 310.734375 336.105469 C 312.582031 335.59375 313.964844 334.054688 314.273438 332.15625 C 317.40625 317.160156 319.101562 301.957031 319.410156 286.601562 C 320.539062 263.855469 311.605469 241.773438 294.917969 226.214844 C 286.496094 217.742188 275.457031 212.351562 263.546875 210.808594 C 264.878906 208.5 265.550781 205.886719 265.550781 203.21875 C 265.550781 195.824219 260.308594 189.601562 253.324219 188.113281 L 260.878906 180.621094 C 264.882812 184.421875 271.144531 184.421875 275.097656 180.621094 L 304.164062 151.558594 C 308.167969 147.5 308.167969 141.03125 304.164062 137.023438 L 322.335938 118.839844 C 332.351562 108.777344 332.351562 92.558594 322.335938 82.546875 L 286.03125 46.289062 C 281.023438 41.257812 274.449219 38.738281 267.878906 38.738281 Z M 267.957031 49.1875 C 271.875 49.1875 275.792969 50.652344 278.851562 53.582031 L 315.144531 89.886719 C 321.152344 95.894531 321.152344 105.601562 315.144531 111.660156 L 296.972656 129.832031 L 267.859375 100.769531 L 238.792969 71.703125 L 257.074219 53.582031 C 260.132812 50.652344 264.042969 49.1875 267.957031 49.1875 Z M 61.945312 61.59375 C 64.472656 61.59375 66.996094 62.40625 69.078125 64.050781 L 157.503906 138.410156 L 165.667969 145.289062 L 191.753906 167.210938 L 155.808594 203.15625 L 133.9375 177.019531 L 127.15625 168.90625 L 52.847656 80.277344 C 48.894531 75.296875 49.773438 68.003906 54.804688 64.050781 C 56.882812 62.40625 59.417969 61.59375 61.945312 61.59375 Z M 224.210938 71.753906 L 296.824219 144.367188 L 289.632812 151.605469 C 287.628906 149.605469 284.394531 149.605469 282.390625 151.605469 L 275.148438 158.847656 C 273.144531 160.851562 273.144531 164.085938 275.148438 166.089844 L 267.859375 173.171875 L 195.457031 100.769531 L 202.488281 93.476562 C 204.488281 95.429688 207.726562 95.429688 209.726562 93.476562 L 216.96875 86.234375 C 218.972656 84.234375 218.972656 80.996094 216.96875 78.996094 Z M 231.261719 95.804688 C 230.074219 95.804688 228.886719 96.21875 227.910156 97.066406 L 227.910156 97.128906 L 220.667969 104.367188 C 218.460938 106.113281 218.101562 109.34375 219.898438 111.550781 C 221.644531 113.757812 224.878906 114.117188 227.089844 112.371094 C 227.398438 112.117188 227.652344 111.804688 227.910156 111.550781 L 235.140625 104.308594 C 236.992188 102.152344 236.738281 98.863281 234.582031 97.066406 C 233.628906 96.21875 232.449219 95.804688 231.261719 95.804688 Z M 249.714844 113.757812 C 248.398438 113.761719 247.085938 114.273438 246.082031 115.300781 L 238.84375 122.59375 C 236.839844 124.59375 236.839844 127.832031 238.894531 129.832031 C 240.894531 131.835938 244.132812 131.835938 246.132812 129.832031 L 253.375 122.542969 C 255.378906 120.488281 255.378906 117.253906 253.375 115.25 C 252.347656 114.25 251.03125 113.75 249.714844 113.757812 Z M 195.457031 115.5625 L 253.585938 173.632812 L 243.828125 183.390625 L 220.507812 164.542969 C 214.910156 159.976562 207.210938 158.6875 200.378906 161.207031 L 172.910156 138.046875 Z M 267.878906 131.929688 C 266.566406 131.929688 265.269531 132.421875 264.265625 133.425781 L 257.074219 140.714844 C 254.917969 142.511719 254.65625 145.800781 256.503906 147.957031 C 258.351562 150.0625 261.589844 150.328125 263.746094 148.476562 C 263.949219 148.324219 264.164062 148.109375 264.316406 147.957031 L 271.558594 140.714844 C 273.5625 138.660156 273.5625 135.425781 271.558594 133.425781 L 271.5 133.425781 C 270.496094 132.421875 269.1875 131.929688 267.878906 131.929688 Z M 207.101562 170.179688 C 209.570312 170.039062 212.085938 170.789062 214.140625 172.457031 L 213.988281 172.457031 L 236.375 190.78125 L 238.742188 192.6875 L 181.535156 250.09375 L 179.480469 247.578125 L 166.230469 231.351562 L 161.304688 225.34375 C 160.792969 224.675781 160.332031 223.957031 159.972656 223.238281 C 158.175781 219.4375 158.886719 214.714844 161.96875 211.582031 L 200.332031 173.21875 C 202.203125 171.347656 204.628906 170.324219 207.101562 170.179688 Z M 210.269531 180.089844 C 208.960938 180.089844 207.648438 180.59375 206.648438 181.59375 C 204.644531 183.597656 204.597656 186.832031 206.597656 188.835938 L 213.839844 195.976562 C 215.585938 198.234375 218.820312 198.644531 221.082031 196.898438 C 223.289062 195.152344 223.699219 191.917969 221.953125 189.707031 C 221.746094 189.398438 221.4375 189.09375 221.132812 188.835938 L 213.890625 181.59375 C 212.886719 180.59375 211.578125 180.089844 210.269531 180.089844 Z M 126.796875 184.164062 L 150.011719 211.734375 C 147.652344 218.101562 148.617188 225.246094 152.519531 230.6875 L 106.414062 276.742188 L 94.289062 274.335938 L 91.882812 262.210938 L 126.59375 227.5 C 128.441406 225.34375 128.179688 222.054688 126.023438 220.257812 C 124.121094 218.5625 121.304688 218.5625 119.351562 220.257812 L 84.640625 254.96875 L 60.660156 250.195312 Z M 250.035156 198.082031 C 251.472656 198.082031 252.8125 198.640625 253.785156 199.617188 L 253.636719 199.617188 C 255.640625 201.621094 255.640625 204.855469 253.636719 206.859375 L 240.539062 219.957031 L 208.292969 252.25 L 199.195312 261.339844 L 195.554688 264.988281 C 193.605469 267.042969 190.316406 267.042969 188.316406 265.039062 L 188.265625 264.988281 C 186.3125 262.984375 186.3125 259.75 188.265625 257.746094 L 246.445312 199.566406 C 247.421875 198.644531 248.699219 198.132812 250.035156 198.082031 Z M 191.925781 198.414062 C 190.617188 198.511719 189.339844 199.101562 188.414062 200.179688 C 186.773438 202.128906 186.773438 204.957031 188.414062 206.859375 L 195.65625 214.101562 C 197.503906 216.257812 200.742188 216.511719 202.898438 214.660156 C 205.054688 212.8125 205.308594 209.578125 203.460938 207.421875 C 203.304688 207.214844 203.101562 207.0625 202.898438 206.859375 L 195.65625 199.617188 C 194.578125 198.71875 193.234375 198.316406 191.925781 198.414062 Z M 174.023438 215.464844 C 172.726562 215.25 171.347656 215.535156 170.191406 216.355469 C 167.882812 217.949219 167.316406 221.1875 168.957031 223.496094 C 169.316406 224.011719 169.777344 224.472656 170.292969 224.78125 L 171.574219 226.066406 L 177.535156 232.023438 C 179.175781 234.382812 182.414062 234.898438 184.722656 233.253906 C 187.035156 231.664062 187.601562 228.425781 185.957031 226.113281 C 185.597656 225.601562 185.128906 225.140625 184.5625 224.78125 L 178.71875 218.925781 L 177.324219 217.539062 C 176.527344 216.382812 175.320312 215.675781 174.023438 215.464844 Z M 258.890625 220.910156 C 269.667969 221.421875 279.949219 225.867188 287.675781 233.507812 L 287.523438 233.507812 C 306.269531 252.199219 313.96875 270.683594 305.597656 321.261719 C 288.703125 308.066406 273.816406 309.351562 260.414062 310.53125 C 247.011719 311.710938 235.347656 312.640625 221.84375 299.1875 C 213.113281 290.40625 208.597656 278.289062 209.316406 265.859375 L 223.699219 251.480469 L 231.191406 264.015625 C 232.988281 266.273438 236.171875 266.632812 238.429688 264.886719 C 240.230469 263.449219 240.847656 261.039062 239.976562 258.878906 L 231.140625 244.136719 L 232.933594 242.34375 L 258.609375 255.230469 C 261.230469 256.460938 264.257812 255.332031 265.441406 252.710938 C 266.570312 250.246094 265.597656 247.328125 263.183594 246.042969 L 240.488281 234.691406 L 254.246094 220.929688 C 255.800781 220.839844 257.351562 220.835938 258.890625 220.910156 Z M 158.9375 238.640625 L 172.1875 254.820312 L 118.429688 308.484375 L 113.296875 284.035156 Z M 54.804688 259.441406 L 81.972656 264.886719 L 84.941406 279.671875 C 85.355469 281.675781 86.953125 283.222656 88.953125 283.683594 L 103.738281 286.660156 L 109.234375 314.082031 L 70.109375 316.949219 L 51.675781 298.515625 Z M 54.804688 259.441406 " fill-opacity="1" fill-rule="nonzero"/></g></svg>