<svg xmlns="http://www.w3.org/2000/svg" xmlns:xlink="http://www.w3.org/1999/xlink" width="500" zoomAndPan="magnify" viewBox="0 0 375 374.999991" height="500" preserveAspectRatio="xMidYMid meet" version="1.0"><defs><clipPath id="87f6ef85de"><path d="M 57 95.234375 L 344.242188 95.234375 L 344.242188 283.484375 L 57 283.484375 Z M 57 95.234375 " clip-rule="nonzero"/></clipPath><clipPath id="c84c7ff150"><path d="M 27 95.234375 L 79 95.234375 L 79 150 L 27 150 Z M 27 95.234375 " clip-rule="nonzero"/></clipPath></defs><g clip-path="url(#87f6ef85de)"><path fill="#ffffff" d="M 317.113281 95.226562 L 84.339844 95.226562 C 79.425781 95.226562 74.816406 96.558594 70.84375 98.875 C 73.496094 100.195312 75.960938 101.925781 78.160156 104.027344 C 78.203125 104.066406 78.253906 104.09375 78.296875 104.140625 L 79.660156 105.5 C 81.152344 105.082031 82.71875 104.839844 84.339844 104.839844 L 317.113281 104.839844 C 326.65625 104.839844 334.421875 112.601562 334.421875 122.144531 L 334.421875 256.851562 C 334.421875 266.394531 326.65625 274.15625 317.113281 274.15625 L 84.339844 274.15625 C 74.796875 274.15625 67.035156 266.394531 67.035156 256.851562 L 67.035156 176.445312 L 57.421875 166.835938 L 57.421875 256.851562 C 57.421875 271.691406 69.5 283.765625 84.339844 283.765625 L 317.113281 283.765625 C 331.957031 283.765625 344.03125 271.691406 344.03125 256.851562 L 344.03125 122.144531 C 344.03125 107.304688 331.957031 95.226562 317.113281 95.226562 " fill-opacity="1" fill-rule="nonzero"/></g><path fill="#ffffff" d="M 106.054688 225.832031 L 106.054688 240.25 C 106.054688 242.902344 108.207031 245.054688 110.859375 245.054688 C 113.515625 245.054688 115.667969 242.902344 115.667969 240.25 L 115.667969 225.832031 C 115.667969 225.484375 115.625 225.144531 115.554688 224.816406 C 115.507812 224.785156 115.46875 224.746094 115.421875 224.71875 C 115.21875 224.570312 115.023438 224.417969 114.847656 224.246094 C 114.824219 224.222656 114.796875 224.207031 114.777344 224.1875 L 111.699219 221.113281 C 111.425781 221.0625 111.148438 221.023438 110.859375 221.023438 C 108.207031 221.023438 106.054688 223.179688 106.054688 225.832031 " fill-opacity="1" fill-rule="nonzero"/><path fill="#ffffff" d="M 191.613281 241.183594 L 177.199219 241.183594 C 174.542969 241.183594 172.390625 243.335938 172.390625 245.992188 C 172.390625 248.644531 174.542969 250.792969 177.199219 250.792969 L 191.613281 250.792969 C 194.265625 250.792969 196.417969 248.644531 196.417969 245.992188 C 196.417969 243.335938 194.265625 241.183594 191.613281 241.183594 " fill-opacity="1" fill-rule="nonzero"/><path fill="#ffffff" d="M 162.78125 241.183594 L 148.367188 241.183594 C 145.710938 241.183594 143.5625 243.335938 143.5625 245.992188 C 143.5625 248.644531 145.710938 250.792969 148.367188 250.792969 L 162.78125 250.792969 C 165.433594 250.792969 167.585938 248.644531 167.585938 245.992188 C 167.585938 243.335938 165.433594 241.183594 162.78125 241.183594 " fill-opacity="1" fill-rule="nonzero"/><path fill="#ffffff" d="M 220.445312 241.183594 L 206.027344 241.183594 C 203.375 241.183594 201.226562 243.335938 201.226562 245.992188 C 201.226562 248.644531 203.375 250.792969 206.027344 250.792969 L 220.445312 250.792969 C 223.097656 250.792969 225.25 248.644531 225.25 245.992188 C 225.25 243.335938 223.097656 241.183594 220.445312 241.183594 " fill-opacity="1" fill-rule="nonzero"/><path fill="#ffffff" d="M 285.789062 229.644531 L 285.789062 244.058594 C 285.789062 244.75 285.941406 245.398438 286.199219 245.992188 C 286.941406 247.679688 288.628906 248.863281 290.59375 248.863281 C 293.246094 248.863281 295.398438 246.714844 295.398438 244.058594 L 295.398438 229.644531 C 295.398438 226.988281 293.246094 224.835938 290.59375 224.835938 C 289.5 224.835938 288.503906 225.21875 287.695312 225.832031 C 286.542969 226.710938 285.789062 228.082031 285.789062 229.644531 " fill-opacity="1" fill-rule="nonzero"/><path fill="#ffffff" d="M 249.277344 241.183594 L 241.308594 241.183594 C 240.59375 242.949219 238.875 244.195312 236.855469 244.195312 C 235.054688 244.195312 233.507812 243.195312 232.683594 241.730469 C 231.128906 242.527344 230.054688 244.128906 230.054688 245.992188 C 230.054688 248.644531 232.207031 250.792969 234.863281 250.792969 L 249.277344 250.792969 C 251.933594 250.792969 254.082031 248.644531 254.082031 245.992188 C 254.082031 243.335938 251.933594 241.183594 249.277344 241.183594 " fill-opacity="1" fill-rule="nonzero"/><path fill="#ffffff" d="M 278.109375 241.183594 L 263.691406 241.183594 C 261.039062 241.183594 258.890625 243.335938 258.890625 245.992188 C 258.890625 248.644531 261.039062 250.792969 263.691406 250.792969 L 278.109375 250.792969 C 280.761719 250.792969 282.914062 248.644531 282.914062 245.992188 C 282.914062 243.335938 280.761719 241.183594 278.109375 241.183594 " fill-opacity="1" fill-rule="nonzero"/><path fill="#ffffff" d="M 133.949219 241.183594 L 119.535156 241.183594 C 116.878906 241.183594 114.726562 243.335938 114.726562 245.992188 C 114.726562 248.644531 116.878906 250.792969 119.535156 250.792969 L 133.949219 250.792969 C 136.601562 250.792969 138.753906 248.644531 138.753906 245.992188 C 138.753906 243.335938 136.601562 241.183594 133.949219 241.183594 " fill-opacity="1" fill-rule="nonzero"/><path fill="#ffffff" d="M 241.660156 144.410156 L 285.789062 144.410156 L 285.789062 193.957031 L 241.660156 193.957031 Z M 241.660156 139.605469 C 241.660156 142.257812 239.507812 144.410156 236.855469 144.410156 L 232.050781 144.410156 L 232.050781 239.390625 C 232.050781 240.246094 232.292969 241.035156 232.683594 241.730469 C 233.507812 243.195312 235.054688 244.195312 236.855469 244.195312 C 238.875 244.195312 240.59375 242.949219 241.308594 241.183594 C 241.53125 240.632812 241.660156 240.027344 241.660156 239.390625 L 241.660156 203.566406 L 290.59375 203.566406 C 293.246094 203.566406 295.398438 201.417969 295.398438 198.765625 L 295.398438 139.605469 C 295.398438 136.953125 293.246094 134.796875 290.59375 134.796875 L 236.855469 134.796875 C 239.507812 134.796875 241.660156 136.953125 241.660156 139.605469 " fill-opacity="1" fill-rule="nonzero"/><path fill="#ffffff" d="M 134.175781 139.605469 C 134.175781 141.734375 132.777344 143.523438 130.855469 144.152344 C 131.328125 144.304688 131.820312 144.410156 132.339844 144.410156 L 236.855469 144.410156 C 239.507812 144.410156 241.660156 142.257812 241.660156 139.605469 C 241.660156 136.953125 239.507812 134.796875 236.855469 134.796875 L 132.339844 134.796875 C 131.820312 134.796875 131.328125 134.90625 130.855469 135.054688 C 132.777344 135.683594 134.175781 137.472656 134.175781 139.605469 " fill-opacity="1" fill-rule="nonzero"/><path fill="#ffffff" d="M 129.371094 144.410156 C 129.894531 144.410156 130.386719 144.304688 130.855469 144.152344 C 132.777344 143.523438 134.175781 141.734375 134.175781 139.605469 C 134.175781 137.472656 132.777344 135.683594 130.855469 135.054688 C 130.386719 134.90625 129.894531 134.796875 129.371094 134.796875 L 110.859375 134.796875 C 110.292969 134.796875 109.757812 134.914062 109.253906 135.09375 L 118.570312 144.410156 L 129.371094 144.410156 " fill-opacity="1" fill-rule="nonzero"/><path stroke-linecap="round" transform="matrix(0.0240796, 0, 0, -0.0240796, -69.417238, 445.063891)" fill="none" stroke-linejoin="round" d="M 16097.809519 8884.180982 L 16097.809519 9083.714837 " stroke="#ffffff" stroke-width="1.2" stroke-opacity="1" stroke-miterlimit="4"/><path stroke-linecap="round" transform="matrix(0.0240796, 0, 0, -0.0240796, -69.417238, 445.063891)" fill="none" stroke-linejoin="round" d="M 16097.809519 12476.277039 L 16097.809519 12675.973117 " stroke="#ffffff" stroke-width="1.2" stroke-opacity="1" stroke-miterlimit="4"/><path stroke-linecap="round" transform="matrix(0.0240796, 0, 0, -0.0240796, -69.417238, 445.063891)" fill="none" stroke-linejoin="round" d="M 16097.809519 10081.546335 L 16097.809519 10281.08019 " stroke="#ffffff" stroke-width="1.2" stroke-opacity="1" stroke-miterlimit="4"/><path stroke-linecap="round" transform="matrix(0.0240796, 0, 0, -0.0240796, -69.417238, 445.063891)" fill="none" stroke-linejoin="round" d="M 16097.809519 7886.349485 L 16097.809519 7752.678024 " stroke="#ffffff" stroke-width="1.2" stroke-opacity="1" stroke-miterlimit="4"/><path stroke-linecap="round" transform="matrix(0.0240796, 0, 0, -0.0240796, -69.417238, 445.063891)" fill="none" stroke-linejoin="round" d="M 16097.809519 11278.911687 L 16097.809519 11478.445542 " stroke="#ffffff" stroke-width="1.2" stroke-opacity="1" stroke-miterlimit="4"/><path fill="#ffffff" d="M 318.210938 255.164062 C 320.863281 255.164062 323.015625 253.011719 323.015625 250.355469 L 323.015625 235.941406 C 323.015625 233.285156 320.863281 231.136719 318.210938 231.136719 C 315.558594 231.136719 313.40625 233.285156 313.40625 235.941406 L 313.40625 250.355469 C 313.40625 253.011719 315.558594 255.164062 318.210938 255.164062 " fill-opacity="1" fill-rule="nonzero"/><path fill="#ffffff" d="M 323.015625 221.527344 L 323.015625 207.109375 C 323.015625 204.457031 320.863281 202.304688 318.210938 202.304688 C 315.558594 202.304688 313.40625 204.457031 313.40625 207.109375 L 313.40625 221.527344 C 313.40625 224.179688 315.558594 226.332031 318.210938 226.332031 C 320.863281 226.332031 323.015625 224.179688 323.015625 221.527344 " fill-opacity="1" fill-rule="nonzero"/><path fill="#ffffff" d="M 323.015625 163.859375 L 323.015625 149.445312 C 323.015625 146.792969 320.863281 144.640625 318.210938 144.640625 C 315.558594 144.640625 313.40625 146.792969 313.40625 149.445312 L 313.40625 163.859375 C 313.40625 166.515625 315.558594 168.667969 318.210938 168.667969 C 320.863281 168.667969 323.015625 166.515625 323.015625 163.859375 " fill-opacity="1" fill-rule="nonzero"/><path fill="#ffffff" d="M 323.015625 135.03125 L 323.015625 120.613281 C 323.015625 117.960938 320.863281 115.808594 318.210938 115.808594 C 315.558594 115.808594 313.40625 117.960938 313.40625 120.613281 L 313.40625 135.03125 C 313.40625 137.683594 315.558594 139.832031 318.210938 139.832031 C 320.863281 139.832031 323.015625 137.683594 323.015625 135.03125 " fill-opacity="1" fill-rule="nonzero"/><path fill="#ffffff" d="M 323.015625 192.691406 L 323.015625 178.277344 C 323.015625 175.621094 320.863281 173.472656 318.210938 173.472656 C 315.558594 173.472656 313.40625 175.621094 313.40625 178.277344 L 313.40625 192.691406 C 313.40625 195.347656 315.558594 197.5 318.210938 197.5 C 320.863281 197.5 323.015625 195.347656 323.015625 192.691406 " fill-opacity="1" fill-rule="nonzero"/><g clip-path="url(#c84c7ff150)"><path fill="#ffffff" d="M 36.511719 139.128906 L 40.242188 135.398438 C 35.839844 127.699219 36.875 117.738281 43.398438 111.210938 C 47.171875 107.4375 52.199219 105.363281 57.550781 105.363281 C 61.128906 105.363281 64.5625 106.308594 67.59375 108.046875 L 71.5 104.140625 C 72.402344 103.238281 73.625 102.730469 74.898438 102.730469 C 76.113281 102.730469 77.273438 103.203125 78.160156 104.023438 C 75.960938 101.925781 73.496094 100.195312 70.84375 98.871094 C 66.761719 96.835938 62.238281 95.75 57.550781 95.75 C 49.628906 95.75 42.191406 98.824219 36.605469 104.414062 C 25.035156 115.984375 25.074219 134.855469 36.695312 146.476562 C 37.628906 147.410156 38.617188 148.269531 39.648438 149.0625 L 36.511719 145.925781 C 34.636719 144.046875 34.636719 141.007812 36.511719 139.128906 " fill-opacity="1" fill-rule="nonzero"/></g><path fill="#ffffff" d="M 157.207031 183.214844 C 157.171875 183.160156 157.136719 183.109375 157.097656 183.058594 C 157.136719 183.109375 157.171875 183.164062 157.207031 183.214844 " fill-opacity="1" fill-rule="nonzero"/><path fill="#ffffff" d="M 116.335938 225.226562 C 116.382812 225.246094 116.433594 225.261719 116.484375 225.28125 C 116.4375 225.261719 116.382812 225.246094 116.335938 225.226562 " fill-opacity="1" fill-rule="nonzero"/><path fill="#ffffff" d="M 115.421875 224.71875 C 115.46875 224.746094 115.507812 224.785156 115.554688 224.816406 C 115.578125 224.832031 115.605469 224.839844 115.632812 224.855469 C 115.558594 224.8125 115.492188 224.765625 115.421875 224.71875 " fill-opacity="1" fill-rule="nonzero"/><path fill="#ffffff" d="M 67.035156 176.445312 L 111.699219 221.113281 L 114.777344 224.1875 C 114.796875 224.207031 114.824219 224.222656 114.847656 224.246094 C 114.226562 223.648438 113.765625 222.886719 113.535156 222.027344 C 113.09375 220.371094 113.570312 218.605469 114.78125 217.394531 L 149.769531 182.40625 C 150.980469 181.191406 152.742188 180.722656 154.402344 181.160156 C 155.242188 181.382812 155.984375 181.824219 156.574219 182.421875 C 156.570312 182.417969 156.566406 182.410156 156.5625 182.402344 L 123.105469 148.949219 L 118.570312 144.410156 L 79.660156 105.5 L 78.296875 104.140625 C 78.253906 104.097656 78.203125 104.066406 78.160156 104.023438 C 77.273438 103.203125 76.113281 102.730469 74.898438 102.730469 C 73.625 102.730469 72.402344 103.238281 71.5 104.140625 L 54.015625 121.625 C 55.894531 119.757812 58.929688 119.757812 60.804688 121.632812 L 64.203125 125.03125 L 74.898438 114.332031 L 146.371094 185.800781 L 118.175781 213.996094 L 46.707031 142.527344 L 57.40625 131.828125 L 54.007812 128.425781 C 52.132812 126.554688 52.132812 123.515625 54 121.640625 L 36.511719 139.128906 C 34.636719 141.007812 34.636719 144.046875 36.511719 145.925781 L 57.421875 166.835938 L 67.035156 176.445312 " fill-opacity="1" fill-rule="nonzero"/><path fill="#ffffff" d="M 115.632812 224.855469 C 115.855469 224.996094 116.089844 225.125 116.335938 225.226562 C 116.382812 225.246094 116.4375 225.261719 116.484375 225.28125 C 116.625 225.332031 116.769531 225.386719 116.917969 225.425781 L 118.40625 225.832031 L 148.863281 234.121094 C 147.230469 233.660156 145.960938 232.375 145.523438 230.734375 C 145.082031 229.078125 145.558594 227.3125 146.769531 226.101562 L 148.738281 224.128906 L 127.4375 218.332031 L 150.703125 195.0625 L 156.5 216.371094 L 158.46875 214.398438 C 159.679688 213.1875 161.445312 212.714844 163.101562 213.152344 C 164.757812 213.59375 166.054688 214.882812 166.503906 216.535156 L 170.875 232.609375 L 169.03125 225.832031 L 157.804688 184.542969 C 157.75 184.34375 157.683594 184.152344 157.605469 183.96875 C 157.605469 183.964844 157.605469 183.960938 157.605469 183.960938 C 157.492188 183.699219 157.355469 183.453125 157.207031 183.214844 C 157.171875 183.164062 157.136719 183.109375 157.097656 183.058594 C 156.941406 182.828125 156.769531 182.617188 156.574219 182.421875 C 155.984375 181.824219 155.242188 181.382812 154.402344 181.160156 C 152.742188 180.722656 150.980469 181.191406 149.769531 182.40625 L 114.78125 217.394531 C 113.570312 218.605469 113.09375 220.371094 113.535156 222.027344 C 113.765625 222.886719 114.226562 223.648438 114.847656 224.246094 C 115.023438 224.417969 115.21875 224.570312 115.421875 224.71875 C 115.492188 224.765625 115.558594 224.8125 115.632812 224.855469 " fill-opacity="1" fill-rule="nonzero"/><path fill="#ffffff" d="M 164.976562 238.503906 C 165.394531 238.617188 165.816406 238.671875 166.238281 238.671875 C 166.550781 238.671875 166.863281 238.640625 167.171875 238.582031 C 168.089844 238.402344 168.949219 237.949219 169.636719 237.265625 C 170.398438 236.503906 170.867188 235.523438 171.003906 234.492188 C 171.082031 233.871094 171.042969 233.230469 170.875 232.609375 L 166.503906 216.535156 C 166.054688 214.882812 164.757812 213.59375 163.101562 213.152344 C 161.445312 212.714844 159.679688 213.1875 158.46875 214.398438 L 156.5 216.371094 L 148.738281 224.128906 L 146.769531 226.101562 C 145.558594 227.3125 145.082031 229.078125 145.523438 230.734375 C 145.960938 232.375 147.230469 233.660156 148.863281 234.121094 C 148.878906 234.125 148.890625 234.132812 148.90625 234.132812 L 164.976562 238.503906 " fill-opacity="1" fill-rule="nonzero"/><path fill="#ffffff" d="M 54 121.640625 C 52.132812 123.515625 52.132812 126.554688 54.007812 128.425781 L 57.40625 131.828125 L 115.054688 189.476562 C 115.992188 190.414062 117.222656 190.882812 118.453125 190.882812 C 119.679688 190.882812 120.910156 190.414062 121.851562 189.476562 C 123.726562 187.597656 123.726562 184.558594 121.851562 182.679688 L 60.804688 121.632812 C 58.929688 119.757812 55.894531 119.757812 54.015625 121.625 C 54.011719 121.628906 54.007812 121.628906 54.007812 121.632812 C 54.003906 121.632812 54.003906 121.636719 54 121.640625 " fill-opacity="1" fill-rule="nonzero"/></svg>